# Blender v2.93.3 OBJ File: 'roof.blend'
# www.blender.org
mtllib roof.mtl
o Cube_Cube.001
v -0.500000 0.500000 0.500000
v -0.500000 -0.500000 -0.500000
v 0.500000 0.500000 0.500000
v 0.500000 -0.500000 -0.500000
v -0.500000 0.500000 0.401037
v -0.500000 -0.401037 -0.500000
v 0.500000 -0.401037 -0.500000
v 0.500000 0.500000 0.401037
v -0.500000 -0.500000 -0.414048
v -0.500000 0.414048 0.500000
v 0.500000 0.414048 0.500000
v 0.500000 -0.500000 -0.414048
vt 0.625000 0.750000
vt 0.603512 1.000000
vt 0.603512 0.750000
vt 0.875000 0.725259
vt 0.625000 0.725259
vt 0.375000 0.521488
vt 0.375000 0.500000
vt 0.375000 0.228512
vt 0.625000 0.000000
vt 0.375000 0.250000
vt 0.399741 0.250000
vt 0.625000 0.500000
vt 0.625000 0.250000
vt 0.125000 0.750000
vt 0.125000 0.521488
vt 0.125000 0.500000
vt 0.625000 1.000000
vt 0.875000 0.750000
vt 0.603512 0.000000
vt 0.399741 0.500000
vt 0.625000 0.024741
vt 0.375000 0.750000
vn 0.0000 0.0000 1.0000
vn 0.0000 1.0000 0.0000
vn 1.0000 0.0000 0.0000
vn -1.0000 0.0000 0.0000
vn 0.0000 0.0000 -1.0000
vn 0.0000 0.7071 -0.7071
vn 0.0000 -0.7071 0.7071
vn 0.0000 -1.0000 0.0000
usemtl None
s off
f 3/1/1 10/2/1 11/3/1
f 5/4/2 3/1/2 8/5/2
f 3/1/3 12/6/3 4/7/3
f 9/8/4 1/9/4 2/10/4
f 4/7/3 8/5/3 3/1/3
f 6/11/5 4/7/5 2/10/5
f 8/12/6 6/11/6 5/13/6
f 1/9/4 6/11/4 2/10/4
f 12/6/7 10/14/7 9/15/7
f 4/7/8 9/15/8 2/16/8
f 3/1/1 1/17/1 10/2/1
f 5/4/2 1/18/2 3/1/2
f 3/1/3 11/3/3 12/6/3
f 9/8/4 10/19/4 1/9/4
f 4/7/3 7/20/3 8/5/3
f 6/11/5 7/20/5 4/7/5
f 8/12/6 7/20/6 6/11/6
f 1/9/4 5/21/4 6/11/4
f 12/6/7 11/22/7 10/14/7
f 4/7/8 12/6/8 9/15/8
