# Blender v2.93.3 OBJ File: 'table.blend'
# www.blender.org
mtllib table.mtl
o Cube_Cube.001
v -0.500000 0.500000 0.500000
v -0.500000 0.500000 -0.500000
v 0.500000 0.500000 0.500000
v 0.500000 0.500000 -0.500000
v -0.500000 0.400000 -0.500000
v -0.500000 0.400000 0.500000
v 0.500000 0.400000 -0.500000
v 0.500000 0.400000 0.500000
v -0.100000 -0.500000 -0.100000
v -0.100000 -0.500000 0.100000
v 0.100000 -0.500000 -0.100000
v 0.100000 -0.500000 0.100000
v -0.100000 0.336029 0.100000
v -0.163971 0.400000 0.163971
v -0.163971 0.400000 -0.163971
v -0.100000 0.336029 -0.100000
v 0.163971 0.400000 0.163971
v 0.100000 0.336029 0.100000
v 0.163971 0.400000 -0.163971
v 0.100000 0.336029 -0.100000
vt 0.625000 0.000000
vt 0.375000 0.250000
vt 0.375000 0.000000
vt 0.625000 0.250000
vt 0.375000 0.500000
vt 0.625000 0.500000
vt 0.375000 0.750000
vt 0.625000 0.750000
vt 0.375000 1.000000
vt 0.275000 0.600000
vt 0.225000 0.600000
vt 0.225000 0.600000
vt 0.875000 0.500000
vt 0.225000 0.650000
vt 0.275000 0.650000
vt 0.275000 0.650000
vt 0.275000 0.600000
vt 0.209007 0.665993
vt 0.125000 0.500000
vt 0.209007 0.584007
vt 0.225000 0.650000
vt 0.290993 0.584007
vt 0.290993 0.665993
vt 0.125000 0.750000
vt 0.625000 1.000000
vt 0.875000 0.750000
vn -1.0000 0.0000 0.0000
vn 0.0000 0.0000 -1.0000
vn 1.0000 0.0000 0.0000
vn 0.0000 0.0000 1.0000
vn 0.0000 1.0000 0.0000
vn 0.0000 -1.0000 0.0000
vn -0.7071 -0.7071 0.0000
vn 0.0000 -0.7071 -0.7071
vn 0.7071 -0.7071 0.0000
vn 0.0000 -0.7071 0.7071
usemtl None
s off
f 1/1/1 5/2/1 6/3/1
f 2/4/2 7/5/2 5/2/2
f 4/6/3 8/7/3 7/5/3
f 3/8/4 6/9/4 8/7/4
f 20/10/2 9/11/2 16/12/2
f 2/13/5 3/8/5 4/6/5
f 13/14/4 12/15/4 18/16/4
f 18/16/3 11/17/3 20/10/3
f 14/18/6 5/19/6 15/20/6
f 11/17/6 10/21/6 9/11/6
f 15/20/6 7/5/6 19/22/6
f 19/22/6 8/7/6 17/23/6
f 17/23/6 6/24/6 14/18/6
f 13/14/7 15/20/7 16/12/7
f 16/12/8 19/22/8 20/10/8
f 20/10/9 17/23/9 18/16/9
f 18/16/10 14/18/10 13/14/10
f 16/12/1 10/21/1 13/14/1
f 1/1/1 2/4/1 5/2/1
f 2/4/2 4/6/2 7/5/2
f 4/6/3 3/8/3 8/7/3
f 3/8/4 1/25/4 6/9/4
f 20/10/2 11/17/2 9/11/2
f 2/13/5 1/26/5 3/8/5
f 13/14/4 10/21/4 12/15/4
f 18/16/3 12/15/3 11/17/3
f 14/18/6 6/24/6 5/19/6
f 11/17/6 12/15/6 10/21/6
f 15/20/6 5/19/6 7/5/6
f 19/22/6 7/5/6 8/7/6
f 17/23/6 8/7/6 6/24/6
f 13/14/7 14/18/7 15/20/7
f 16/12/8 15/20/8 19/22/8
f 20/10/9 19/22/9 17/23/9
f 18/16/10 17/23/10 14/18/10
f 16/12/1 9/11/1 10/21/1
