# Blender v2.93.3 OBJ File: 'wall.blend'
# www.blender.org
mtllib wall.mtl
o Cube_Cube.001
v 0.166667 -0.500000 -0.500000
v -0.166667 -0.500000 -0.500000
v -0.166667 0.500000 -0.500000
v 0.166667 0.500000 -0.500000
v -0.166667 -0.500000 0.500000
v 0.166667 -0.500000 0.500000
v 0.166667 0.500000 0.500000
v -0.166667 0.500000 0.500000
vt 0.791667 0.500000
vt 0.708333 0.750000
vt 0.708333 0.500000
vt 0.291667 0.500000
vt 0.208333 0.750000
vt 0.208333 0.500000
vt 0.791667 0.750000
vt 0.375000 0.916667
vt 0.625000 0.833333
vt 0.375000 0.833333
vt 0.625000 0.333333
vt 0.375000 0.416667
vt 0.375000 0.333333
vt 0.291667 0.750000
vt 0.625000 0.916667
vt 0.625000 0.416667
vn 0.0000 1.0000 0.0000
vn 0.0000 -1.0000 0.0000
vn -1.0000 0.0000 0.0000
vn 0.0000 0.0000 1.0000
vn 0.0000 0.0000 -1.0000
vn 1.0000 0.0000 0.0000
usemtl None
s off
f 3/1/1 7/2/1 4/3/1
f 1/4/2 5/5/2 2/6/2
f 8/7/3 2/6/3 5/8/3
f 7/9/4 5/8/4 6/10/4
f 3/11/5 1/12/5 2/13/5
f 4/3/6 6/14/6 1/12/6
f 3/1/1 8/7/1 7/2/1
f 1/4/2 6/14/2 5/5/2
f 8/7/3 3/11/3 2/6/3
f 7/9/4 8/15/4 5/8/4
f 3/11/5 4/16/5 1/12/5
f 4/3/6 7/9/6 6/14/6
