# Blender v2.93.3 OBJ File: 'roofWall.blend'
# www.blender.org
mtllib roofWall.mtl
o Cube_Cube.001
v -0.500000 0.500000 0.500000
v -0.500000 -0.500000 -0.500000
v 0.500000 0.500173 0.500000
v 0.500000 -0.499965 -0.500000
v -0.500000 0.500000 0.401037
v -0.500000 -0.401037 -0.500000
v 0.500000 -0.401016 -0.500000
v 0.500000 0.500132 0.401037
v -0.500000 -0.498918 -0.414048
v -0.500000 0.414048 0.500000
v 0.500000 0.416742 0.500000
v 0.500000 -0.497923 -0.414048
v 0.166667 -0.499992 -0.500000
v -0.166667 -0.500000 -0.500000
v 0.166667 0.500000 0.500000
v -0.166667 0.500000 0.500000
v -0.166667 0.500000 0.401037
v 0.166667 0.500000 0.401037
v 0.166667 -0.401037 -0.500000
v -0.166667 -0.401037 -0.500000
v -0.166667 -0.498526 -0.414048
v 0.166667 -0.498183 -0.414048
v 0.166667 0.414897 0.500000
v -0.166667 0.414078 0.500000
v -0.166667 -0.498526 -0.414048
v 0.166667 -0.498183 -0.414048
v 0.166667 -0.509405 0.500000
v -0.166667 -0.509405 0.500000
vt 0.603512 0.916667
vt 0.625000 1.000000
vt 0.603512 1.000000
vt 0.875000 0.725259
vt 0.791667 0.750000
vt 0.791667 0.725259
vt 0.625000 0.750000
vt 0.375000 0.521488
vt 0.375000 0.500000
vt 0.375000 0.228512
vt 0.625000 0.000000
vt 0.375000 0.250000
vt 0.625000 0.725259
vt 0.399741 0.416667
vt 0.375000 0.416667
vt 0.625000 0.416667
vt 0.399741 0.500000
vt 0.399741 0.250000
vt 0.291667 0.750000
vt 0.291667 0.521488
vt 0.291667 0.500000
vt 0.208333 0.500000
vt 0.125000 0.521488
vt 0.125000 0.500000
vt 0.208333 0.521488
vt 0.125000 0.750000
vt 0.603512 0.833333
vt 0.603512 0.833333
vt 0.625000 0.333333
vt 0.625000 0.250000
vt 0.399741 0.333333
vt 0.375000 0.333333
vt 0.708333 0.750000
vt 0.708333 0.725259
vt 0.603512 0.750000
vt 0.625000 0.833333
vt 0.625000 0.916667
vt 0.208333 0.521488
vt 0.291667 0.750000
vt 0.208333 0.750000
vt 0.291667 0.521488
vt 0.208333 0.750000
vt 0.875000 0.750000
vt 0.603512 0.000000
vt 0.625000 0.500000
vt 0.625000 0.024741
vt 0.375000 0.750000
vt 0.603512 0.916667
vn 0.0000 0.0000 1.0000
vn 0.0000 1.0000 0.0000
vn 1.0000 0.0000 0.0000
vn -1.0000 0.0000 0.0000
vn 0.0000 0.0000 -1.0000
vn -0.0000 0.7071 -0.7071
vn 0.0006 -0.7075 0.7067
vn 0.0001 -0.9998 0.0210
vn 0.0000 -0.9999 0.0126
vn 0.0000 -0.9999 0.0171
vn 0.0008 -0.7075 0.7067
vn -0.0005 1.0000 -0.0004
vn 0.0000 -0.9999 -0.0119
vn -0.0003 0.7071 -0.7072
vn 0.0039 -0.7069 0.7073
vn 0.0008 -0.9997 0.0237
vn 0.0012 -0.9999 0.0171
vn 0.0010 -0.9998 0.0210
vn 0.0001 -0.7077 0.7065
vn -0.0004 1.0000 0.0000
vn 0.0010 -0.9999 -0.0123
usemtl None
s off
f 24/1/1 1/2/1 10/3/1
f 5/4/2 16/5/2 17/6/2
f 3/7/3 12/8/3 4/9/3
f 9/10/4 1/11/4 2/12/4
f 4/9/3 8/13/3 3/7/3
f 19/14/5 4/9/5 13/15/5
f 18/16/6 7/17/6 19/14/6
f 1/11/4 6/18/4 2/12/4
f 12/8/7 23/19/7 22/20/7
f 4/9/8 22/20/8 13/21/8
f 14/22/9 9/23/9 2/24/9
f 13/21/10 21/25/10 14/22/10
f 21/25/11 10/26/11 9/23/11
f 24/1/1 27/27/1 23/28/1
f 17/29/6 6/18/6 5/30/6
f 18/16/6 20/31/6 17/29/6
f 6/18/5 14/32/5 2/12/5
f 20/31/5 13/15/5 14/32/5
f 8/13/12 15/33/12 3/7/12
f 17/6/2 15/33/2 18/34/2
f 11/35/1 15/36/1 23/28/1
f 23/28/1 16/37/1 24/1/1
f 25/38/13 27/39/13 28/40/13
f 21/25/1 26/41/1 25/38/1
f 24/42/4 25/38/4 28/40/4
f 22/20/1 27/39/1 26/41/1
f 24/1/1 16/37/1 1/2/1
f 5/4/2 1/43/2 16/5/2
f 3/7/3 11/35/3 12/8/3
f 9/10/4 10/44/4 1/11/4
f 4/9/3 7/17/3 8/13/3
f 19/14/5 7/17/5 4/9/5
f 18/16/14 8/45/14 7/17/14
f 1/11/4 5/46/4 6/18/4
f 12/8/15 11/47/15 23/19/15
f 4/9/16 12/8/16 22/20/16
f 14/22/17 21/25/17 9/23/17
f 13/21/18 22/20/18 21/25/18
f 21/25/19 24/42/19 10/26/19
f 24/1/1 28/48/1 27/27/1
f 17/29/6 20/31/6 6/18/6
f 18/16/6 19/14/6 20/31/6
f 6/18/5 20/31/5 14/32/5
f 20/31/5 19/14/5 13/15/5
f 8/13/20 18/34/20 15/33/20
f 17/6/2 16/5/2 15/33/2
f 11/35/1 3/7/1 15/36/1
f 23/28/1 15/36/1 16/37/1
f 25/38/21 26/41/21 27/39/21
f 21/25/1 22/20/1 26/41/1
f 24/42/1 21/25/1 25/38/1
f 22/20/3 23/19/3 27/39/3
