# Blender v2.93.3 OBJ File: ''
# www.blender.org
mtllib stairsTest.mtl
o Cube
v 1.000000 1.000000 -1.000000
v 1.000000 -1.000000 -1.000000
v 1.000000 1.000000 1.000000
v 1.000000 -1.000000 1.000000
v -1.000000 1.000000 -1.000000
v -1.000000 -1.000000 -1.000000
v -1.000000 1.000000 1.000000
v -1.000000 -1.000000 1.000000
vt 0.875000 0.500000
vt 0.625000 0.750000
vt 0.625000 0.500000
vt 0.375000 1.000000
vt 0.375000 0.750000
vt 0.625000 0.000000
vt 0.375000 0.250000
vt 0.375000 0.000000
vt 0.375000 0.500000
vt 0.125000 0.750000
vt 0.125000 0.500000
vt 0.625000 0.250000
vt 0.875000 0.750000
vt 0.625000 1.000000
vn 0.0000 1.0000 0.0000
vn 0.0000 0.0000 1.0000
vn -1.0000 0.0000 0.0000
vn 0.0000 -1.0000 0.0000
vn 1.0000 0.0000 0.0000
vn 0.0000 0.0000 -1.0000
usemtl (null)
s off
f 5/1/1 3/2/1 1/3/1
f 3/2/2 8/4/2 4/5/2
f 7/6/3 6/7/3 8/8/3
f 2/9/4 8/10/4 6/11/4
f 1/3/5 4/5/5 2/9/5
f 5/12/6 2/9/6 6/7/6
f 5/1/1 7/13/1 3/2/1
f 3/2/2 7/14/2 8/4/2
f 7/6/3 5/12/3 6/7/3
f 2/9/4 4/5/4 8/10/4
f 1/3/5 3/2/5 4/5/5
f 5/12/6 1/3/6 2/9/6
o stairs
v -1.000000 -0.572687 1.000000
v -0.996000 -0.411319 0.996000
v -1.000000 -0.572687 -1.000000
v -0.996000 -0.411319 -0.996000
v 1.000000 -0.572687 1.000000
v 0.996000 -0.411319 0.996000
v 1.000000 -0.572687 -1.000000
v 0.996000 -0.411319 -0.996000
v -1.000000 -0.411319 1.000000
v -1.000000 -0.411319 -1.000000
v 1.000000 -0.411319 -1.000000
v 1.000000 -0.411319 1.000000
v -0.996000 -0.411319 0.996000
v -0.996000 -0.411319 -0.996000
v 0.996000 -0.411319 -0.996000
v 0.996000 -0.411319 0.996000
v -0.600000 -0.411319 -1.000000
v -0.200000 -0.411319 -1.000000
v 0.200000 -0.411319 -1.000000
v 0.600000 -0.411319 -1.000000
v 0.597600 0.288681 -0.191713
v 0.597600 0.088681 -0.191713
v 0.600000 -0.411319 1.000000
v 0.200000 -0.411319 1.000000
v -0.200000 -0.411319 1.000000
v -0.600000 -0.411319 1.000000
v -0.597600 -0.411319 -0.996000
v -0.199200 -0.411319 -0.996000
v 0.199200 -0.411319 -0.996000
v 0.597600 -0.411319 -0.996000
v 0.597600 -0.411319 0.996000
v 0.199200 -0.411319 0.996000
v -0.199200 -0.411319 0.996000
v -0.597600 -0.411319 0.996000
v -0.597600 -0.411319 -0.996000
v -0.199200 -0.411319 -0.996000
v 0.199200 -0.411319 -0.996000
v 0.597600 -0.411319 -0.996000
v 0.597600 -0.411319 0.996000
v 0.199200 -0.411319 0.996000
v -0.199200 -0.411319 0.996000
v -0.597600 -0.411319 0.996000
v 0.199200 0.288681 -0.191713
v -1.000000 -0.411319 0.600000
v -1.000000 -0.411319 0.200000
v -1.000000 -0.411319 -0.200000
v -1.000000 -0.411319 -0.600000
v 0.199200 0.088681 -0.191713
v 1.000000 -0.411319 -0.600000
v 1.000000 -0.411319 -0.200000
v 1.000000 -0.411319 0.200000
v 1.000000 -0.411319 0.600000
v -0.996000 -0.411319 0.597600
v -0.996000 -0.411319 0.199200
v -0.996000 -0.411319 -0.199200
v -0.996000 -0.411319 -0.597600
v 0.996000 -0.411319 -0.597600
v 0.996000 -0.411319 -0.199200
v 0.996000 -0.411319 0.199200
v 0.996000 -0.411319 0.597600
v -0.996000 -0.411319 0.597600
v -0.996000 -0.411319 0.199200
v -0.996000 -0.411319 -0.199200
v -0.996000 -0.411319 -0.597600
v 0.996000 -0.411319 -0.597600
v 0.996000 -0.411319 -0.199200
v 0.996000 -0.411319 0.199200
v 0.996000 -0.411319 0.597600
v 0.597600 -0.411319 0.199200
v 0.597600 -0.411319 0.597600
v 0.199200 -0.411319 0.199200
v 0.199200 -0.411319 0.597600
v -0.199200 -0.411319 0.199200
v -0.199200 -0.411319 0.597600
v -0.597600 -0.411319 0.199200
v -0.597600 -0.411319 0.597600
v 0.597600 0.088681 0.199200
v 0.597600 0.088681 0.597600
v 0.199200 0.088681 0.199200
v 0.199200 0.088681 0.597600
v -0.199200 0.088681 0.199200
v -0.199200 0.088681 0.597600
v -0.597600 0.088681 0.199200
v -0.597600 0.088681 0.597600
v 0.597600 0.288681 0.199200
v 0.597600 0.288681 0.597600
v 0.199200 0.288681 0.199200
v 0.199200 0.288681 0.597600
v -0.199200 0.288681 0.199200
v -0.199200 0.288681 0.597600
v -0.597600 0.288681 0.199200
v -0.597600 0.288681 0.597600
v 0.199200 0.088681 0.997600
v 0.597600 0.088681 0.997600
v 0.199200 0.288681 0.997600
v 0.597600 0.288681 0.997600
v 0.997600 0.088681 0.199200
v 0.997600 0.088681 0.597600
v 0.997600 0.288681 0.199200
v 0.997600 0.288681 0.597600
v 0.597600 0.288681 0.997600
v 0.597600 0.088681 0.997600
v 0.997600 0.288681 0.997600
v 0.997600 0.088681 0.997600
v 0.597600 0.088681 -0.200800
v 0.597600 0.288681 -0.200800
v 0.997600 0.088681 -0.200800
v 0.997600 0.288681 -0.200800
v -0.997600 0.088681 0.199200
v -0.997600 0.088681 0.597600
v -0.997600 0.288681 0.199200
v -0.997600 0.288681 0.597600
v -0.597600 0.088681 -0.200800
v -0.597600 0.288681 -0.200800
v -0.997600 0.088681 -0.200800
v -0.997600 0.288681 -0.200800
v -0.597600 0.088681 -0.200800
v -0.199200 0.088681 -0.200800
v -0.597600 0.288681 -0.200800
v -0.199200 0.288681 -0.200800
v -0.200800 0.288681 -0.191713
v -0.200800 0.088681 -0.191713
v -0.200800 0.288681 0.199200
v -0.200800 0.088681 0.199200
v -0.200800 0.088681 0.199200
v -0.200800 0.088681 0.597600
v -0.200800 0.288681 0.199200
v -0.200800 0.288681 0.597600
v -0.200800 0.288681 0.597600
v -0.200800 0.088681 0.597600
v -0.200800 0.288681 0.997600
v -0.200800 0.088681 0.997600
v -0.597600 0.088681 0.997600
v -0.199200 0.088681 0.997600
v -0.597600 0.288681 0.997600
v -0.199200 0.288681 0.997600
v -0.597600 0.288681 0.997600
v -0.597600 0.088681 0.997600
v -0.997600 0.288681 0.997600
v -0.997600 0.088681 0.997600
v 0.597600 0.288681 -0.191713
v 0.199200 0.288681 -0.191713
v 0.199200 0.088681 0.597600
v 0.597600 0.288681 0.199200
v 0.597600 0.288681 0.597600
v 0.199200 0.288681 0.199200
v 0.199200 0.288681 0.597600
v -0.199200 0.288681 0.199200
v -0.199200 0.288681 0.597600
v -0.597600 0.288681 0.199200
v -0.597600 0.288681 0.597600
v 0.199200 0.288681 0.997600
v 0.597600 0.288681 0.997600
v 0.997600 0.288681 0.199200
v 0.997600 0.288681 0.597600
v 0.597600 0.288681 0.997600
v 0.997600 0.288681 0.997600
v 0.597600 0.288681 -0.200800
v 0.997600 0.288681 -0.200800
v -0.997600 0.288681 0.199200
v -0.997600 0.288681 0.597600
v -0.597600 0.288681 -0.200800
v -0.997600 0.288681 -0.200800
v -0.597600 0.288681 -0.200800
v -0.199200 0.288681 -0.200800
v -0.200800 0.288681 -0.191713
v -0.200800 0.288681 0.199200
v -0.200800 0.288681 0.199200
v -0.200800 0.288681 0.597600
v -0.200800 0.288681 0.597600
v -0.200800 0.088681 0.597600
v -0.200800 0.288681 0.997600
v -0.597600 0.288681 0.997600
v -0.199200 0.288681 0.997600
v -0.597600 0.288681 0.997600
v -0.997600 0.288681 0.997600
v 0.421699 -0.572687 -0.683494
v 0.734978 -0.572687 -0.689624
v 0.678933 -0.572687 -0.448714
v 0.345801 -0.572687 -0.400093
v -0.323599 -0.572687 -0.698486
v -0.605060 -0.572687 -0.722628
v -0.304160 -0.572687 -0.402952
v -0.631417 -0.572687 -0.418959
v 0.421699 -0.972687 -0.683494
v 0.734978 -0.972687 -0.689624
v 0.678933 -0.972687 -0.448714
v 0.345801 -0.972687 -0.400093
v -0.605060 -0.972687 -0.722628
v -0.323599 -0.972687 -0.698486
v -0.304160 -0.972687 -0.402952
v -0.631417 -0.972687 -0.418959
vt 0.675300 0.649900
vt 0.675300 0.649900
vt 0.675300 0.649900
vt 0.874500 0.500500
vt 0.875000 0.550000
vt 0.874500 0.550300
vt 0.625500 0.500500
vt 0.675000 0.500000
vt 0.675300 0.500500
vt 0.625500 0.749500
vt 0.625000 0.700000
vt 0.625500 0.699700
vt 0.874500 0.749500
vt 0.825000 0.750000
vt 0.824700 0.749500
vt 0.874500 0.550300
vt 0.675300 0.500500
vt 0.625500 0.699700
vt 0.824700 0.749500
vt 0.625500 0.749500
vt 0.675300 0.749500
vt 0.675300 0.749500
vt 0.725100 0.749500
vt 0.725100 0.749500
vt 0.774900 0.749500
vt 0.774900 0.749500
vt 0.874500 0.500500
vt 0.824700 0.500500
vt 0.824700 0.500500
vt 0.774900 0.500500
vt 0.774900 0.500500
vt 0.725100 0.500500
vt 0.725100 0.500500
vt 0.675000 0.750000
vt 0.625000 0.750000
vt 0.725000 0.750000
vt 0.775000 0.750000
vt 0.825000 0.500000
vt 0.875000 0.500000
vt 0.775000 0.500000
vt 0.725000 0.500000
vt 0.675300 0.699700
vt 0.625500 0.649900
vt 0.125000 0.500000
vt 0.174368 0.534671
vt 0.171073 0.572630
vt 0.625000 0.900000
vt 0.375000 1.000000
vt 0.375000 0.750000
vt 0.625000 0.400000
vt 0.375000 0.500000
vt 0.375000 0.250000
vt 0.774900 0.699700
vt 0.824700 0.699700
vt 0.824700 0.699700
vt 0.725100 0.699700
vt 0.725100 0.649900
vt 0.725100 0.649900
vt 0.725100 0.649900
vt 0.675300 0.649900
vt 0.625500 0.500500
vt 0.625500 0.550300
vt 0.625500 0.550300
vt 0.625500 0.600100
vt 0.625500 0.600100
vt 0.625500 0.649900
vt 0.874500 0.749500
vt 0.874500 0.699700
vt 0.874500 0.699700
vt 0.874500 0.649900
vt 0.874500 0.649900
vt 0.874500 0.600100
vt 0.874500 0.600100
vt 0.625000 0.550000
vt 0.625000 0.500000
vt 0.625000 0.600000
vt 0.625000 0.650000
vt 0.875000 0.700000
vt 0.875000 0.750000
vt 0.875000 0.650000
vt 0.875000 0.600000
vt 0.824700 0.649900
vt 0.625000 0.150000
vt 0.375000 0.000000
vt 0.675300 0.649900
vt 0.675300 0.699700
vt 0.725100 0.699700
vt 0.824700 0.649900
vt 0.774900 0.649900
vt 0.774900 0.649900
vt 0.774900 0.649900
vt 0.774900 0.699700
vt 0.675300 0.699700
vt 0.675300 0.699700
vt 0.725100 0.699700
vt 0.725100 0.649900
vt 0.774900 0.699700
vt 0.824700 0.699700
vt 0.725100 0.699700
vt 0.725100 0.699700
vt 0.675300 0.649900
vt 0.675300 0.699700
vt 0.675300 0.699700
vt 0.675300 0.649900
vt 0.675300 0.699700
vt 0.675300 0.699700
vt 0.675300 0.699700
vt 0.675300 0.699700
vt 0.675300 0.649900
vt 0.675300 0.649900
vt 0.675300 0.649900
vt 0.675300 0.649900
vt 0.824700 0.699700
vt 0.824700 0.649900
vt 0.824700 0.649900
vt 0.824700 0.649900
vt 0.824700 0.649900
vt 0.824700 0.649900
vt 0.824700 0.649900
vt 0.824700 0.649900
vt 0.824700 0.649900
vt 0.774900 0.649900
vt 0.774900 0.649900
vt 0.725100 0.649900
vt 0.725100 0.649900
vt 0.725100 0.649900
vt 0.725100 0.649900
vt 0.725100 0.649900
vt 0.725100 0.649900
vt 0.725100 0.649900
vt 0.725100 0.699700
vt 0.725100 0.699700
vt 0.725100 0.699700
vt 0.725100 0.699700
vt 0.725100 0.699700
vt 0.774900 0.699700
vt 0.824700 0.699700
vt 0.824700 0.699700
vt 0.824700 0.699700
vt 0.824700 0.699700
vt 0.824700 0.699700
vt 0.824700 0.699700
vt 0.824700 0.699700
vt 0.725100 0.649900
vt 0.725100 0.649900
vt 0.725100 0.649900
vt 0.675300 0.649900
vt 0.675300 0.699700
vt 0.675300 0.699700
vt 0.675300 0.699700
vt 0.824700 0.649900
vt 0.774900 0.699700
vt 0.774900 0.649900
vt 0.824700 0.699700
vt 0.824700 0.699700
vt 0.725100 0.699700
vt 0.675300 0.699700
vt 0.725100 0.699700
vt 0.725100 0.699700
vt 0.675300 0.649900
vt 0.675300 0.649900
vt 0.824700 0.699700
vt 0.824700 0.649900
vt 0.824700 0.649900
vt 0.824700 0.649900
vt 0.725100 0.699700
vt 0.725100 0.699700
vt 0.725100 0.699700
vt 0.774900 0.699700
vt 0.302712 0.539563
vt 0.209550 0.537689
vt 0.293225 0.574988
vt 0.334867 0.568911
vt 0.334867 0.568911
vt 0.211980 0.574631
vt 0.211980 0.574631
vt 0.302712 0.539563
vt 0.293225 0.574988
vt 0.341872 0.538797
vt 0.341872 0.538797
vt 0.171073 0.572630
vt 0.209550 0.537689
vt 0.174368 0.534671
vt 0.625000 0.800000
vt 0.625000 0.850000
vt 0.625000 0.950000
vt 0.625000 1.000000
vt 0.625000 0.250000
vt 0.625000 0.300000
vt 0.625000 0.350000
vt 0.625000 0.450000
vt 0.625000 0.000000
vt 0.625000 0.050000
vt 0.625000 0.100000
vt 0.625000 0.200000
vt 0.675300 0.699700
vt 0.824700 0.649900
vt 0.725100 0.699700
vt 0.774900 0.699700
vt 0.725100 0.649900
vt 0.675300 0.649900
vt 0.675300 0.699700
vt 0.675300 0.649900
vt 0.824700 0.699700
vt 0.824700 0.649900
vt 0.774900 0.649900
vt 0.725100 0.649900
vt 0.725100 0.699700
vt 0.824700 0.699700
vt 0.125000 0.750000
vn 1.0000 0.0000 0.0000
vn 0.0000 1.0000 0.0000
vn 0.0000 0.0000 1.0000
vn 0.0000 -1.0000 0.0000
vn 0.0000 0.0000 -1.0000
vn -1.0000 0.0000 -0.0000
vn 0.1444 0.0000 0.9895
vn -0.0489 0.0000 0.9988
vn -0.0196 0.0000 -0.9998
vn -0.9660 0.0000 -0.2587
vn 0.9740 0.0000 0.2266
vn 0.0855 0.0000 -0.9963
vn -0.9963 0.0000 -0.0865
vn 0.9978 0.0000 -0.0656
usemtl None
s off
f 85/15/7 29/16/7 93/17/7
f 22/18/8 55/19/8 64/20/8
f 23/21/8 28/22/8 38/23/8
f 24/24/8 60/25/8 68/26/8
f 21/27/8 34/28/8 42/29/8
f 72/30/9 22/18/9 64/20/9
f 46/31/9 23/21/9 38/23/9
f 76/32/9 24/24/9 68/26/9
f 50/33/9 21/27/9 42/29/9
f 14/34/9 39/35/9 24/24/9
f 47/36/9 40/37/9 39/35/9
f 48/38/9 41/39/9 40/37/9
f 49/40/9 42/29/9 41/39/9
f 12/41/9 35/42/9 22/18/9
f 43/43/9 36/44/9 35/42/9
f 44/45/9 37/46/9 36/44/9
f 45/47/9 38/23/9 37/46/9
f 24/24/8 31/48/8 20/49/8
f 39/35/8 32/50/8 31/48/8
f 41/39/8 32/50/8 40/37/8
f 42/29/8 33/51/8 41/39/8
f 22/18/8 25/52/8 18/53/8
f 35/42/8 26/54/8 25/52/8
f 37/46/8 26/54/8 36/44/8
f 38/23/8 27/55/8 37/46/8
f 78/56/8 76/32/8 75/57/8
f 11/58/10 190/59/10 192/60/10
f 33/61/9 9/62/9 13/63/9
f 27/64/11 15/65/11 11/66/11
f 82/67/9 92/68/9 84/69/9
f 80/70/12 87/71/12 79/72/12
f 56/73/11 29/16/11 30/74/11
f 16/75/9 65/76/9 23/21/9
f 73/77/9 66/78/9 65/76/9
f 74/79/9 67/80/9 66/78/9
f 75/57/9 68/26/9 67/80/9
f 10/81/9 61/82/9 21/27/9
f 69/83/9 62/84/9 61/82/9
f 70/85/9 63/86/9 62/84/9
f 71/87/9 64/20/9 63/86/9
f 23/21/8 57/88/8 19/89/8
f 65/76/8 58/90/8 57/88/8
f 67/80/8 58/90/8 66/78/8
f 68/26/8 59/91/8 67/80/8
f 21/27/8 52/92/8 17/93/8
f 61/82/8 53/94/8 52/92/8
f 63/86/8 53/94/8 62/84/8
f 64/20/8 54/95/8 63/86/8
f 80/70/8 82/67/8 49/40/8
f 83/96/8 69/83/8 84/69/8
f 59/91/7 13/63/7 15/65/7
f 54/97/12 11/66/12 9/98/12
f 77/99/7 86/100/7 78/56/7
f 79/72/11 85/15/11 77/99/11
f 78/56/9 88/101/9 80/70/9
f 91/102/10 126/103/10 89/104/10
f 83/96/11 89/104/11 81/105/11
f 84/69/12 91/102/12 83/96/12
f 81/105/7 90/106/7 82/67/7
f 94/107/7 102/108/7 86/100/7
f 87/71/10 134/109/10 133/110/10
f 87/71/10 30/74/10 85/15/10
f 89/104/7 98/111/7 90/106/7
f 90/106/10 141/112/10 92/68/10
f 102/108/9 103/113/9 101/114/9
f 86/100/10 101/114/10 88/101/10
f 105/115/7 108/116/7 106/117/7
f 85/15/10 106/117/10 86/100/10
f 85/15/10 115/118/10 105/115/10
f 110/119/9 111/120/9 109/121/9
f 86/100/12 109/121/12 94/107/12
f 108/116/7 112/122/7 106/117/7
f 106/117/10 110/119/10 86/100/10
f 114/123/11 115/118/11 113/124/11
f 93/17/12 113/124/12 85/15/12
f 105/115/7 116/125/7 107/126/7
f 118/127/12 119/128/12 117/129/12
f 117/129/10 121/130/10 91/102/10
f 92/68/10 117/129/10 91/102/10
f 121/130/11 124/131/11 122/132/11
f 119/128/12 123/133/12 117/129/12
f 91/102/7 122/132/7 99/134/7
f 125/135/11 128/136/11 126/103/11
f 99/134/12 125/135/12 91/102/12
f 89/104/7 128/136/7 97/137/7
f 131/138/12 130/139/12 132/140/12
f 56/73/11 129/141/11 51/142/11
f 95/143/9 132/140/9 87/71/9
f 87/71/10 130/139/10 56/73/10
f 134/109/12 135/144/12 133/110/12
f 87/71/11 135/144/11 95/143/11
f 96/145/9 134/109/9 88/101/9
f 138/146/12 139/147/12 137/148/12
f 101/114/10 138/146/10 88/101/10
f 103/113/9 140/149/9 101/114/9
f 142/150/9 143/151/9 141/112/9
f 92/68/12 143/151/12 100/152/12
f 98/111/7 142/150/7 90/106/7
f 145/153/9 148/154/9 146/155/9
f 118/127/12 147/156/12 120/157/12
f 100/152/7 146/155/7 92/68/7
f 92/68/10 148/154/10 118/127/10
f 150/158/8 175/159/8 154/160/8
f 152/161/8 150/158/8 154/160/8
f 153/162/8 165/163/8 163/164/8
f 154/160/8 153/162/8 152/161/8
f 158/165/8 157/166/8 156/167/8
f 158/165/8 169/168/8 159/169/8
f 155/170/8 161/171/8 153/162/8
f 155/170/8 180/172/8 160/173/8
f 153/162/8 162/174/8 152/161/8
f 162/174/8 166/175/8 152/161/8
f 169/168/8 183/176/8 159/169/8
f 158/165/8 171/177/8 168/178/8
f 156/167/8 172/179/8 158/165/8
f 154/160/8 177/180/8 155/170/8
f 151/181/11 178/182/11 155/170/11
f 159/169/8 182/183/8 157/166/8
f 15/65/10 185/184/10 189/185/10
f 188/186/13 195/187/13 187/188/13
f 192/60/14 199/189/14 191/190/14
f 191/190/10 189/185/10 188/186/10
f 188/186/10 187/188/10 13/63/10
f 193/191/10 195/187/10 196/192/10
f 186/193/15 193/191/15 185/184/15
f 185/184/16 196/192/16 188/186/16
f 187/188/17 194/194/17 186/193/17
f 200/195/10 198/196/10 199/189/10
f 189/185/18 197/197/18 190/59/18
f 190/59/19 200/195/19 192/60/19
f 191/190/20 198/196/20 189/185/20
f 85/15/7 30/74/7 29/16/7
f 22/18/8 18/53/8 55/19/8
f 23/21/8 19/89/8 28/22/8
f 24/24/8 20/49/8 60/25/8
f 21/27/8 17/93/8 34/28/8
f 72/30/9 12/41/9 22/18/9
f 46/31/9 16/75/9 23/21/9
f 76/32/9 14/34/9 24/24/9
f 50/33/9 10/81/9 21/27/9
f 14/34/9 47/36/9 39/35/9
f 47/36/9 48/38/9 40/37/9
f 48/38/9 49/40/9 41/39/9
f 49/40/9 50/33/9 42/29/9
f 12/41/9 43/43/9 35/42/9
f 43/43/9 44/45/9 36/44/9
f 44/45/9 45/47/9 37/46/9
f 45/47/9 46/31/9 38/23/9
f 24/24/8 39/35/8 31/48/8
f 39/35/8 40/37/8 32/50/8
f 41/39/8 33/51/8 32/50/8
f 42/29/8 34/28/8 33/51/8
f 22/18/8 35/42/8 25/52/8
f 35/42/8 36/44/8 26/54/8
f 37/46/8 27/55/8 26/54/8
f 38/23/8 28/22/8 27/55/8
f 74/79/8 77/99/8 75/57/8
f 77/99/8 78/56/8 75/57/8
f 11/58/10 189/185/10 190/59/10
f 20/49/9 31/198/9 13/63/9
f 31/198/9 32/199/9 13/63/9
f 33/61/9 34/200/9 9/62/9
f 34/200/9 17/201/9 9/62/9
f 13/63/9 32/199/9 33/61/9
f 18/202/11 25/203/11 11/66/11
f 25/203/11 26/204/11 11/66/11
f 27/64/11 28/205/11 15/65/11
f 28/205/11 19/89/11 15/65/11
f 11/66/11 26/204/11 27/64/11
f 82/67/9 90/106/9 92/68/9
f 80/70/12 88/101/12 87/71/12
f 56/73/11 51/142/11 29/16/11
f 16/75/9 73/77/9 65/76/9
f 73/77/9 74/79/9 66/78/9
f 74/79/9 75/57/9 67/80/9
f 75/57/9 76/32/9 68/26/9
f 10/81/9 69/83/9 61/82/9
f 69/83/9 70/85/9 62/84/9
f 70/85/9 71/87/9 63/86/9
f 71/87/9 72/30/9 64/20/9
f 23/21/8 65/76/8 57/88/8
f 65/76/8 66/78/8 58/90/8
f 67/80/8 59/91/8 58/90/8
f 68/26/8 60/25/8 59/91/8
f 21/27/8 61/82/8 52/92/8
f 61/82/8 62/84/8 53/94/8
f 63/86/8 54/95/8 53/94/8
f 64/20/8 55/19/8 54/95/8
f 16/75/8 46/31/8 73/77/8
f 46/31/8 45/47/8 73/77/8
f 44/45/8 43/43/8 72/30/8
f 43/43/8 12/41/8 72/30/8
f 73/77/8 45/47/8 79/72/8
f 45/47/8 44/45/8 79/72/8
f 77/99/8 74/79/8 73/77/8
f 79/72/8 77/99/8 73/77/8
f 44/45/8 72/30/8 71/87/8
f 71/87/8 70/85/8 83/96/8
f 44/45/8 71/87/8 81/105/8
f 79/72/8 44/45/8 81/105/8
f 71/87/8 83/96/8 81/105/8
f 82/67/8 84/69/8 50/33/8
f 84/69/8 69/83/8 10/81/8
f 84/69/8 10/81/8 50/33/8
f 79/72/8 81/105/8 82/67/8
f 76/32/8 78/56/8 14/34/8
f 78/56/8 80/70/8 47/36/8
f 14/34/8 78/56/8 47/36/8
f 80/70/8 79/72/8 82/67/8
f 49/40/8 48/38/8 80/70/8
f 48/38/8 47/36/8 80/70/8
f 82/67/8 50/33/8 49/40/8
f 83/96/8 70/85/8 69/83/8
f 19/89/7 57/88/7 15/65/7
f 57/88/7 58/90/7 15/65/7
f 59/91/7 60/25/7 13/63/7
f 60/25/7 20/49/7 13/63/7
f 15/65/7 58/90/7 59/91/7
f 17/206/12 52/207/12 9/98/12
f 52/207/12 53/208/12 9/98/12
f 54/97/12 55/209/12 11/66/12
f 55/209/12 18/202/12 11/66/12
f 9/98/12 53/208/12 54/97/12
f 77/99/7 85/15/7 86/100/7
f 79/72/11 87/71/11 85/15/11
f 78/56/9 86/100/9 88/101/9
f 91/102/10 125/135/10 126/103/10
f 83/96/11 91/102/11 89/104/11
f 84/69/12 92/68/12 91/102/12
f 81/105/7 89/104/7 90/106/7
f 94/107/7 104/210/7 102/108/7
f 87/71/10 88/101/10 134/109/10
f 87/71/10 56/73/10 30/74/10
f 89/104/7 97/137/7 98/111/7
f 90/106/10 142/150/10 141/112/10
f 102/108/9 104/210/9 103/113/9
f 86/100/10 102/108/10 101/114/10
f 105/115/7 107/126/7 108/116/7
f 85/15/10 105/115/10 106/117/10
f 85/15/10 113/124/10 115/118/10
f 110/119/9 112/122/9 111/120/9
f 86/100/12 110/119/12 109/121/12
f 108/116/7 111/120/7 112/122/7
f 106/117/10 112/122/10 110/119/10
f 114/123/11 116/125/11 115/118/11
f 93/17/12 114/123/12 113/124/12
f 105/115/7 115/118/7 116/125/7
f 118/127/12 120/157/12 119/128/12
f 117/129/10 123/133/10 121/130/10
f 92/68/10 118/127/10 117/129/10
f 121/130/11 123/133/11 124/131/11
f 119/128/12 124/131/12 123/133/12
f 91/102/7 121/130/7 122/132/7
f 125/135/11 127/211/11 128/136/11
f 99/134/12 127/211/12 125/135/12
f 89/104/7 126/103/7 128/136/7
f 131/138/12 129/141/12 130/139/12
f 56/73/11 130/139/11 129/141/11
f 95/143/9 131/138/9 132/140/9
f 87/71/10 132/140/10 130/139/10
f 134/109/12 136/212/12 135/144/12
f 87/71/11 133/110/11 135/144/11
f 96/145/9 136/212/9 134/109/9
f 138/146/12 140/149/12 139/147/12
f 101/114/10 140/149/10 138/146/10
f 103/113/9 139/147/9 140/149/9
f 142/150/9 144/213/9 143/151/9
f 92/68/12 141/112/12 143/151/12
f 98/111/7 144/213/7 142/150/7
f 145/153/9 147/156/9 148/154/9
f 118/127/12 148/154/12 147/156/12
f 100/152/7 145/153/7 146/155/7
f 92/68/10 146/155/10 148/154/10
f 150/158/8 174/214/8 175/159/8
f 152/161/8 149/215/8 150/158/8
f 153/162/8 164/216/8 165/163/8
f 154/160/8 155/170/8 153/162/8
f 158/165/8 159/169/8 157/166/8
f 158/165/8 168/178/8 169/168/8
f 155/170/8 160/173/8 161/171/8
f 155/170/8 178/182/8 180/172/8
f 153/162/8 163/164/8 162/174/8
f 162/174/8 167/217/8 166/175/8
f 169/168/8 184/218/8 183/176/8
f 158/165/8 170/219/8 171/177/8
f 156/167/8 173/220/8 172/179/8
f 154/160/8 176/221/8 177/180/8
f 151/181/11 179/222/11 178/182/11
f 159/169/8 181/223/8 182/183/8
f 11/58/10 15/65/10 189/185/10
f 15/65/10 186/193/10 185/184/10
f 185/184/10 188/186/10 189/185/10
f 188/186/13 196/192/13 195/187/13
f 192/60/14 200/195/14 199/189/14
f 187/188/10 186/193/10 15/65/10
f 9/224/10 11/58/10 192/60/10
f 9/224/10 192/60/10 191/190/10
f 187/188/10 15/65/10 13/63/10
f 9/224/10 191/190/10 13/63/10
f 191/190/10 188/186/10 13/63/10
f 193/191/10 194/194/10 195/187/10
f 186/193/15 194/194/15 193/191/15
f 185/184/16 193/191/16 196/192/16
f 187/188/17 195/187/17 194/194/17
f 200/195/10 197/197/10 198/196/10
f 189/185/18 198/196/18 197/197/18
f 190/59/19 197/197/19 200/195/19
f 191/190/20 199/189/20 198/196/20
