<?xml version="1.0" encoding="UTF-8" standalone="no"?>
<!-- Created with Inkscape (http://www.inkscape.org/) -->

<svg
   width="210mm"
   height="297mm"
   viewBox="0 0 210 297"
   version="1.1"
   id="svg5"
   inkscape:version="1.2.2 (732a01da63, 2022-12-09)"
   sodipodi:docname="fond01.svg"
   xmlns:inkscape="http://www.inkscape.org/namespaces/inkscape"
   xmlns:sodipodi="http://sodipodi.sourceforge.net/DTD/sodipodi-0.dtd"
   xmlns="http://www.w3.org/2000/svg"
   xmlns:svg="http://www.w3.org/2000/svg">
  <sodipodi:namedview
     id="namedview7"
     pagecolor="#505050"
     bordercolor="#eeeeee"
     borderopacity="1"
     inkscape:showpageshadow="0"
     inkscape:pageopacity="0"
     inkscape:pagecheckerboard="0"
     inkscape:deskcolor="#505050"
     inkscape:document-units="mm"
     showgrid="false"
     inkscape:zoom="0.72515432"
     inkscape:cx="351.64929"
     inkscape:cy="451.62801"
     inkscape:window-width="1920"
     inkscape:window-height="1001"
     inkscape:window-x="-9"
     inkscape:window-y="-9"
     inkscape:window-maximized="1"
     inkscape:current-layer="layer1" />
  <defs
     id="defs2" />
  <g
     inkscape:label="Calque 1"
     inkscape:groupmode="layer"
     id="layer1">
    <path
       style="fill:#ff2aab;fill-opacity:0.50519001;stroke-width:0.264999;stroke-dasharray:none"
       d="m 53.270268,18.608108 c -3.648646,3.648649 -47.7972951,9.851351 -42.324322,51.810809 5.472973,41.959463 26.635134,60.932433 19.337839,73.702703 -7.297299,12.77027 -23.7162174,5.47297 -17.513515,60.56757 6.202703,55.09459 15.689189,43.78378 26.27027,47.43243 10.581082,3.64865 13.864865,1.82432 24.081081,-2.91892 C 73.337837,244.45946 161.27027,183.89189 133.54054,133.17567 105.81081,82.459459 66.040539,84.283782 68.229728,71.148648 70.418917,58.013512 78.810809,32.837837 95.594592,29.189188 112.37838,25.54054 119.31081,9.4864863 98.148647,6.9324322 76.986486,4.3783784 53.270268,18.608108 53.270268,18.608108 Z"
       id="path1123" />
    <path
       style="fill:#ff7f2a;fill-opacity:0.50519;stroke-width:0.290254;stroke-dasharray:none"
       d="m 180.32694,168.34264 c 0,0 15.55035,-37.25109 3.51136,-39.4798 -12.03896,-2.22869 -41.63478,-5.73093 -43.13965,-17.82958 -1.50488,-12.098644 -9.53087,-46.802658 -23.57633,-41.071721 -14.04548,5.730939 -23.074713,12.735419 -19.06172,15.600888 4.01299,2.865469 29.59582,36.295943 13.04223,40.434953 -16.553592,4.13901 -41.634789,38.52463 -27.087694,53.80714 14.547095,15.2825 23.074704,24.1973 25.081194,37.25109 2.0065,13.05381 8.52761,27.69954 -3.51136,37.88788 -12.038981,10.18833 -14.045478,19.7399 -0.50163,30.24661 13.54385,10.50672 35.11368,11.1435 44.14292,5.73094 9.02923,-5.41255 9.53085,-20.69505 5.51785,-25.15245 -4.01299,-4.4574 0,-12.73541 12.03899,-14.96412 12.03898,-2.22869 27.58932,6.68609 37.62179,12.73542 10.03247,6.04933 27.58933,4.13901 29.09422,-10.50671 1.50485,-14.64574 -29.59584,-20.69507 -32.60558,-35.97757 -3.00975,-15.2825 -39.12668,-13.37219 -39.12668,-26.74437 0,-13.37219 18.56009,-21.9686 18.56009,-21.9686 z"
       id="path1125" />
    <path
       style="fill:#ff2a2a;fill-opacity:0.50519;stroke-width:0.366043;stroke-dasharray:none"
       d="m 155.79917,78.337158 c 0,0 38.05808,-21.183564 19.85639,-39.604054 -18.2017,-18.420493 -62.87858,-24.407153 -69.49738,-9.210248 -6.618798,15.196904 -34.748692,41.906619 -16.546999,56.182499 18.201689,14.27588 52.950389,45.130205 63.981719,32.235865 11.03132,-12.89435 -5.51566,-17.959985 -1.10313,-29.933305 4.41253,-11.973317 3.3094,-9.670757 3.3094,-9.670757 z"
       id="path1127" />
  </g>
</svg>
